# xmcd CD database file
#
# Track frame offsets:
#	150
#	39729
#	87275
#	108297
#	130704
#
# Disc length: 2672 seconds
#
# Revision: 0
# Processed by: cddbd v1.5.2PL0 Copyright (c) Steve Scherf et al.
# Submitted via: CDex 1.70beta3
#
DISCID=370a6e05
DTITLE=Pharoah Sanders and Norman Connors - Beyond a Dream
DYEAR=1900
DGENRE=Jazz
TTITLE0=Babyron
TTITLE1=Beyond a Dream
TTITLE2=Montreux Overture
TTITLE3=The End of the Beginning
TTITLE4=Casino Latino
EXTD=
EXTT0=
EXTT1=
EXTT2=
EXTT3=
EXTT4=
PLAYORDER=
